<svg xmlns="http://www.w3.org/2000/svg" viewBox="0 0 210 297">
  <path d="m23.61 16.8 3.3-.6q.24 1.7 1.53 2.43 1.28.7 3.68.7 5.07 0 5.07-3.16 0-.87-1.4-1.29-1.35-.41-3.29-.59-1.94-.2-3.89-.52-1.94-.35-3.33-1.35-1.36-1.05-1.36-2.85 0-1.42.66-2.47.7-1.07 1.6-1.6.9-.51 2.15-.83 1.29-.34 2.12-.41.83-.07 1.7-.07 1.18 0 2.33.2 1.18.21 2.43.7 1.28.45 2.15 1.46.9.97 1.08 2.32l-3.1.46q-.23-1.4-1.41-1.91-1.19-.56-3.55-.56-2.46 0-3.6.63-1.15.59-1.15 2.18 0 .9 1.35 1.36 1.39.41 3.33.59 1.95.17 3.9.52 1.94.31 3.3 1.32 1.38 1 1.38 2.78 0 1.49-.7 2.63-.69 1.12-1.66 1.7-.94.56-2.26.9-1.28.36-2.19.43-.86.1-1.73.1-.77 0-1.63-.1-.87-.07-2.09-.39-1.21-.34-2.18-.86-.94-.56-1.7-1.53-.73-1-.84-2.33zm18.86 5V4.42h3.36V21.8Zm5.69 0V0h3.4v21.8zm14.96.2q-4.1 0-6.84-2.3-2.74-2.28-2.74-6.59 0-4.3 2.74-6.6 2.75-2.32 6.84-2.29 4.14.04 6.88 2.33 2.74 2.26 2.74 6.56T70 19.71Q67.26 22 63.12 22zm0-14.9q-2.53-.03-4.37 1.6-1.8 1.6-1.8 4.41 0 2.92 1.73 4.45 1.74 1.52 4.44 1.52 2.68 0 4.45-1.52 1.77-1.57 1.77-4.45 0-2.81-1.8-4.37-1.78-1.6-4.42-1.64zm11.43 1.98q0-4.65 4.62-4.65h6.98v3.2l-5.87.03q-1.5 0-1.91.45-.42.42-.42 2.15V21.8h-3.4z"/>
  <path d="M0 21.77 9.17.01 14.12 0l9.18 21.79h-3.65l-8.02-18.7-6.35 15.53h9.36l1.37 3.17z"/>
  <path fill="#ff001f" d="M42.46 0h3.36v3.36h-3.36z"/>
</svg>